<svg id="visual" viewBox="0 0 900 600" width="900" height="600" xmlns="http://www.w3.org/2000/svg" xmlns:xlink="http://www.w3.org/1999/xlink" version="1.1"><rect x="0" y="0" width="900" height="600" fill="#001220"></rect><path d="M0 439L21.5 434.5C43 430 86 421 128.8 416.5C171.7 412 214.3 412 257.2 412.5C300 413 343 414 385.8 408C428.7 402 471.3 389 514.2 393.5C557 398 600 420 642.8 424.8C685.7 429.7 728.3 417.3 771.2 410.3C814 403.3 857 401.7 878.5 400.8L900 400L900 601L878.5 601C857 601 814 601 771.2 601C728.3 601 685.7 601 642.8 601C600 601 557 601 514.2 601C471.3 601 428.7 601 385.8 601C343 601 300 601 257.2 601C214.3 601 171.7 601 128.8 601C86 601 43 601 21.5 601L0 601Z" fill="#175200"></path><path d="M0 418L21.5 414.2C43 410.3 86 402.7 128.8 401C171.7 399.3 214.3 403.7 257.2 415.2C300 426.7 343 445.3 385.8 446.3C428.7 447.3 471.3 430.7 514.2 433.2C557 435.7 600 457.3 642.8 461.7C685.7 466 728.3 453 771.2 447C814 441 857 442 878.5 442.5L900 443L900 601L878.5 601C857 601 814 601 771.2 601C728.3 601 685.7 601 642.8 601C600 601 557 601 514.2 601C471.3 601 428.7 601 385.8 601C343 601 300 601 257.2 601C214.3 601 171.7 601 128.8 601C86 601 43 601 21.5 601L0 601Z" fill="#414700"></path><path d="M0 500L21.5 492.3C43 484.7 86 469.3 128.8 462.8C171.7 456.3 214.3 458.7 257.2 459.2C300 459.7 343 458.3 385.8 462.7C428.7 467 471.3 477 514.2 474.8C557 472.7 600 458.3 642.8 460.8C685.7 463.3 728.3 482.7 771.2 483.8C814 485 857 468 878.5 459.5L900 451L900 601L878.5 601C857 601 814 601 771.2 601C728.3 601 685.7 601 642.8 601C600 601 557 601 514.2 601C471.3 601 428.7 601 385.8 601C343 601 300 601 257.2 601C214.3 601 171.7 601 128.8 601C86 601 43 601 21.5 601L0 601Z" fill="#543a00"></path><path d="M0 505L21.5 508.5C43 512 86 519 128.8 520.2C171.7 521.3 214.3 516.7 257.2 516.2C300 515.7 343 519.3 385.8 514.2C428.7 509 471.3 495 514.2 495.2C557 495.3 600 509.7 642.8 513C685.7 516.3 728.3 508.7 771.2 507.5C814 506.3 857 511.7 878.5 514.3L900 517L900 601L878.5 601C857 601 814 601 771.2 601C728.3 601 685.7 601 642.8 601C600 601 557 601 514.2 601C471.3 601 428.7 601 385.8 601C343 601 300 601 257.2 601C214.3 601 171.7 601 128.8 601C86 601 43 601 21.5 601L0 601Z" fill="#632900"></path><path d="M0 542L21.5 546.8C43 551.7 86 561.3 128.8 562.8C171.7 564.3 214.3 557.7 257.2 556.2C300 554.7 343 558.3 385.8 558.3C428.7 558.3 471.3 554.7 514.2 548.8C557 543 600 535 642.8 536.7C685.7 538.3 728.3 549.7 771.2 550.8C814 552 857 543 878.5 538.5L900 534L900 601L878.5 601C857 601 814 601 771.2 601C728.3 601 685.7 601 642.8 601C600 601 557 601 514.2 601C471.3 601 428.7 601 385.8 601C343 601 300 601 257.2 601C214.3 601 171.7 601 128.8 601C86 601 43 601 21.5 601L0 601Z" fill="#720000"></path></svg>