<svg id="visual" viewBox="0 0 900 600" width="900" height="600" xmlns="http://www.w3.org/2000/svg" xmlns:xlink="http://www.w3.org/1999/xlink" version="1.1"><rect x="0" y="0" width="900" height="600" fill="#eaeaea"></rect><path d="M0 166L21.5 161.7C43 157.3 86 148.7 128.8 142C171.7 135.3 214.3 130.7 257.2 138C300 145.3 343 164.7 385.8 171C428.7 177.3 471.3 170.7 514.2 168.8C557 167 600 170 642.8 175.3C685.7 180.7 728.3 188.3 771.2 190.8C814 193.3 857 190.7 878.5 189.3L900 188L900 0L878.5 0C857 0 814 0 771.2 0C728.3 0 685.7 0 642.8 0C600 0 557 0 514.2 0C471.3 0 428.7 0 385.8 0C343 0 300 0 257.2 0C214.3 0 171.7 0 128.8 0C86 0 43 0 21.5 0L0 0Z" fill="#9a0000"></path><path d="M0 161L21.5 157.3C43 153.7 86 146.3 128.8 138.2C171.7 130 214.3 121 257.2 121.7C300 122.3 343 132.7 385.8 131.2C428.7 129.7 471.3 116.3 514.2 110.3C557 104.3 600 105.7 642.8 107.7C685.7 109.7 728.3 112.3 771.2 111.3C814 110.3 857 105.7 878.5 103.3L900 101L900 0L878.5 0C857 0 814 0 771.2 0C728.3 0 685.7 0 642.8 0C600 0 557 0 514.2 0C471.3 0 428.7 0 385.8 0C343 0 300 0 257.2 0C214.3 0 171.7 0 128.8 0C86 0 43 0 21.5 0L0 0Z" fill="#864000"></path><path d="M0 121L21.5 113.5C43 106 86 91 128.8 84.7C171.7 78.3 214.3 80.7 257.2 79.8C300 79 343 75 385.8 82.3C428.7 89.7 471.3 108.3 514.2 111.5C557 114.7 600 102.3 642.8 100.7C685.7 99 728.3 108 771.2 105.5C814 103 857 89 878.5 82L900 75L900 0L878.5 0C857 0 814 0 771.2 0C728.3 0 685.7 0 642.8 0C600 0 557 0 514.2 0C471.3 0 428.7 0 385.8 0C343 0 300 0 257.2 0C214.3 0 171.7 0 128.8 0C86 0 43 0 21.5 0L0 0Z" fill="#715a00"></path><path d="M0 58L21.5 63.8C43 69.7 86 81.3 128.8 83.7C171.7 86 214.3 79 257.2 78.7C300 78.3 343 84.7 385.8 80.2C428.7 75.7 471.3 60.3 514.2 60C557 59.7 600 74.3 642.8 80.5C685.7 86.7 728.3 84.3 771.2 78.3C814 72.3 857 62.7 878.5 57.8L900 53L900 0L878.5 0C857 0 814 0 771.2 0C728.3 0 685.7 0 642.8 0C600 0 557 0 514.2 0C471.3 0 428.7 0 385.8 0C343 0 300 0 257.2 0C214.3 0 171.7 0 128.8 0C86 0 43 0 21.5 0L0 0Z" fill="#566e00"></path><path d="M0 57L21.5 57C43 57 86 57 128.8 54.3C171.7 51.7 214.3 46.3 257.2 44.7C300 43 343 45 385.8 47.2C428.7 49.3 471.3 51.7 514.2 49.2C557 46.7 600 39.3 642.8 39.8C685.7 40.3 728.3 48.7 771.2 50.5C814 52.3 857 47.7 878.5 45.3L900 43L900 0L878.5 0C857 0 814 0 771.2 0C728.3 0 685.7 0 642.8 0C600 0 557 0 514.2 0C471.3 0 428.7 0 385.8 0C343 0 300 0 257.2 0C214.3 0 171.7 0 128.8 0C86 0 43 0 21.5 0L0 0Z" fill="#008122"></path></svg>